<?xml version="1.0" standalone="no"?>
<!DOCTYPE svg PUBLIC "-//W3C//DTD SVG 20010904//EN"
 "http://www.w3.org/TR/2001/REC-SVG-20010904/DTD/svg10.dtd">
<svg version="1.0" xmlns="http://www.w3.org/2000/svg"
 width="1272.000000pt" height="201.000000pt" viewBox="0 0 1272.000000 201.000000"
 preserveAspectRatio="xMidYMid meet">

<g transform="translate(0.000000,201.000000) scale(0.100000,-0.100000)"
fill="#000000" stroke="none">
<path d="M1055 1813 c-186 -26 -368 -134 -433 -257 -22 -43 -27 -64 -27 -131
0 -67 5 -88 27 -131 51 -97 173 -174 344 -216 49 -13 90 -23 91 -23 1 -1 -15
-35 -37 -77 -52 -99 -69 -147 -81 -234 -20 -144 20 -273 116 -373 102 -107
209 -147 375 -138 120 6 212 31 309 84 234 127 381 332 381 532 0 169 -72 239
-233 229 -100 -6 -186 -50 -286 -144 -87 -83 -138 -160 -158 -242 -24 -100 -2
-152 66 -152 47 0 71 24 71 72 0 56 -37 71 -104 43 -18 -8 -19 -5 -12 34 11
70 44 121 135 212 111 110 207 161 303 162 141 1 215 -94 188 -241 -14 -78
-32 -121 -85 -203 -116 -179 -299 -318 -474 -359 -77 -18 -209 -16 -274 5 -79
25 -146 79 -181 149 -38 73 -47 194 -22 300 18 78 78 212 125 280 32 46 32 46
89 46 248 0 670 126 867 259 l44 30 24 -42 c29 -51 43 -95 52 -164 10 -74 29
-68 23 6 -3 42 -15 81 -42 136 l-38 77 35 37 c64 67 75 124 33 166 -35 35 -95
47 -220 44 l-111 -3 -62 37 c-142 86 -322 154 -480 182 -78 14 -265 18 -338 8z
m425 -73 c120 -24 248 -69 355 -123 l80 -40 -85 -23 c-182 -48 -333 -115 -470
-207 -72 -48 -240 -206 -273 -256 l-16 -24 -88 21 c-103 26 -215 76 -265 121
-85 74 -111 196 -64 296 55 119 232 223 431 255 86 13 280 3 395 -20z m746
-185 c48 -20 59 -55 35 -108 -10 -23 -30 -53 -45 -67 l-27 -25 -46 53 c-25 29
-70 73 -100 97 -29 24 -54 48 -54 52 0 25 177 23 237 -2z m-124 -134 l71 -74
-24 -19 c-39 -31 -258 -135 -344 -163 -185 -61 -406 -105 -524 -105 l-52 0 22
32 c119 166 402 369 618 442 l75 25 44 -32 c24 -18 76 -65 114 -106z"/>
<path d="M8105 1721 c-258 -54 -475 -171 -660 -356 -146 -145 -205 -270 -205
-434 0 -202 130 -331 335 -331 232 0 546 218 663 460 30 63 36 88 40 155 4
101 -13 140 -78 173 -39 21 -55 23 -130 19 -143 -7 -273 -72 -399 -197 -98
-97 -134 -167 -139 -266 -3 -54 0 -81 14 -109 19 -41 66 -75 103 -75 30 0 20
11 -22 25 -22 7 -38 22 -51 48 -18 37 -18 42 -2 105 22 89 65 158 157 252 162
167 345 240 459 182 69 -34 90 -141 51 -255 -65 -187 -312 -411 -525 -476
-177 -54 -342 -4 -409 123 -28 54 -29 177 -3 256 63 190 272 425 494 555 140
82 293 129 466 144 230 20 457 -27 576 -119 l25 -19 -25 -17 c-49 -33 -278
-271 -359 -373 -45 -57 -159 -219 -253 -360 -146 -217 -187 -271 -272 -356
-162 -161 -302 -221 -496 -213 -139 6 -239 58 -276 145 -16 38 -18 99 -4 108
6 3 10 -3 10 -14 0 -33 37 -64 68 -56 40 9 62 41 62 89 0 51 -13 66 -60 66
-67 0 -110 -53 -110 -136 0 -94 76 -173 204 -209 98 -28 244 -17 380 29 133
44 246 102 346 177 126 93 200 192 322 434 92 182 148 280 222 390 71 104 236
280 257 273 24 -8 70 -93 78 -144 21 -144 -52 -280 -186 -345 -41 -20 -50 -21
-119 -9 -105 17 -169 -1 -112 -31 14 -8 48 -9 100 -5 91 8 112 0 175 -64 51
-51 73 -112 73 -205 0 -136 -55 -260 -165 -370 -128 -129 -276 -169 -376 -102
-76 51 -91 167 -35 281 40 81 134 178 208 216 183 91 318 -34 228 -211 -16
-32 -25 -61 -21 -64 13 -7 27 13 51 75 73 185 -77 310 -265 220 -72 -34 -185
-150 -223 -230 -95 -199 -16 -339 193 -340 152 0 275 50 386 160 103 101 148
217 135 343 -12 120 -74 206 -195 271 l-63 33 69 17 c184 45 278 169 245 324
-13 63 -66 150 -112 183 -16 13 -30 26 -30 29 0 16 182 90 259 105 181 37 322
-21 381 -157 27 -62 32 -176 11 -250 -15 -54 -11 -85 8 -50 6 12 17 58 23 102
19 125 -8 222 -80 295 -117 117 -317 122 -540 13 l-83 -41 -87 41 c-146 69
-219 84 -432 88 -151 3 -202 0 -275 -15z"/>
<path d="M2605 1365 c-112 -176 -530 -902 -623 -1080 -10 -19 -7 -20 50 -19
l59 2 51 88 c87 154 215 339 278 404 72 72 138 107 171 89 35 -18 18 -65 -71
-204 -119 -185 -139 -247 -104 -321 29 -62 94 -80 162 -45 36 19 138 119 197
194 l30 38 0 -65 c0 -56 5 -71 30 -107 61 -86 154 -101 271 -44 77 38 219 179
351 350 94 122 181 215 202 215 5 0 14 -7 21 -15 26 -31 -38 -157 -234 -457
l-76 -118 69 0 70 0 32 57 c18 32 67 110 108 173 84 127 89 136 71 125 -7 -4
-6 4 4 23 54 104 26 222 -53 222 -43 0 -110 -66 -249 -243 -197 -251 -318
-347 -438 -347 -69 0 -94 26 -94 97 0 38 8 67 33 114 l32 62 110 27 c246 61
335 118 335 214 0 118 -196 92 -410 -54 -68 -47 -114 -96 -170 -179 -91 -136
-198 -250 -258 -277 -30 -13 -37 -13 -58 1 -13 8 -24 21 -24 28 1 23 40 98 95
183 99 152 122 213 104 279 -23 82 -86 113 -164 81 -35 -15 -122 -96 -189
-176 -43 -52 51 106 278 468 80 128 146 234 146 235 0 1 -30 2 -66 2 -56 0
-69 -3 -79 -20z m719 -511 c20 -8 21 -46 1 -84 -30 -58 -177 -147 -303 -184
l-53 -15 33 45 c48 68 187 196 238 222 48 23 59 26 84 16z"/>
<path d="M6713 1270 c-173 -301 -384 -644 -450 -731 -119 -157 -238 -269 -287
-269 -13 0 -36 34 -36 54 0 34 67 164 172 336 137 225 131 200 54 200 l-66 0
-22 -42 -23 -43 -3 37 c-6 74 -87 77 -227 10 -140 -67 -223 -131 -299 -231
l-42 -56 1 -85 c0 -61 6 -94 18 -118 34 -63 114 -90 175 -58 33 17 125 113
172 179 18 26 34 47 35 47 1 0 -5 -26 -14 -59 -14 -54 -13 -62 3 -105 19 -51
54 -76 104 -76 45 0 118 56 200 152 41 48 76 88 77 88 2 0 -4 -19 -12 -42 -23
-67 -13 -135 26 -170 80 -71 171 -11 358 235 41 54 73 100 71 103 -3 2 -46
-49 -96 -115 -101 -131 -172 -202 -227 -228 -37 -18 -37 -17 -57 7 -36 45 -19
80 314 633 143 238 263 439 268 447 7 13 -2 15 -57 15 l-64 0 -66 -115z m-695
-426 c41 -28 21 -92 -71 -233 -119 -181 -271 -341 -324 -341 -22 0 -63 47 -63
73 0 125 221 427 362 492 63 29 67 30 96 9z"/>
<path d="M10579 996 c-129 -215 -252 -411 -274 -435 -52 -56 -129 -101 -177
-101 -20 0 -39 4 -42 8 -2 4 9 28 26 52 62 91 92 169 92 243 1 61 -2 71 -23
88 -32 26 -102 24 -172 -5 -100 -41 -194 -112 -306 -233 -112 -119 -145 -144
-194 -145 -46 -2 -69 27 -69 83 0 68 13 93 62 122 160 93 238 197 150 197 -55
0 -136 -79 -190 -185 -11 -22 -41 -60 -67 -85 l-46 -45 33 70 c22 48 34 89 36
132 4 56 2 64 -21 87 -18 18 -37 26 -59 26 -28 0 -45 -12 -113 -83 -81 -84
-153 -177 -138 -177 5 0 27 26 50 58 111 158 213 232 213 156 0 -42 -55 -142
-243 -446 l-67 -108 68 0 67 1 70 115 c39 64 96 144 127 178 l57 61 -6 -51
c-14 -131 88 -163 202 -63 36 32 37 32 29 9 -17 -49 -10 -143 14 -182 74 -120
206 -101 343 50 60 66 64 69 100 65 48 -7 97 10 153 53 l46 35 -69 -118 c-37
-65 -73 -127 -79 -138 -10 -19 -7 -20 54 -20 l64 0 61 110 c133 238 213 372
403 680 109 176 200 322 201 325 2 3 -27 6 -64 6 l-68 1 -234 -391z m-415
-157 c22 -17 26 -28 26 -69 0 -63 -8 -84 -25 -70 -36 30 -135 -78 -135 -147 0
-19 7 -47 15 -63 15 -29 15 -29 -58 -104 -78 -80 -123 -106 -185 -106 -58 0
-76 25 -69 97 6 73 34 136 102 239 97 145 210 243 281 244 12 0 33 -9 48 -21z"/>
<path d="M4918 1104 c-29 -15 -58 -61 -58 -92 0 -52 67 -57 116 -8 70 70 25
146 -58 100z"/>
<path d="M3930 854 c-59 -39 -210 -207 -198 -220 3 -2 18 12 34 33 54 73 149
166 184 180 32 14 35 14 52 -7 34 -41 -4 -120 -210 -442 l-82 -128 68 0 68 0
64 103 c214 346 395 532 458 469 30 -30 18 -60 -84 -213 -104 -156 -126 -216
-105 -282 16 -48 63 -87 105 -87 59 0 138 66 265 220 l21 25 -15 -37 c-8 -21
-15 -60 -15 -89 0 -45 4 -55 34 -85 40 -40 85 -45 144 -15 41 21 156 133 199
195 l28 39 5 -64 c10 -114 67 -179 166 -187 79 -7 143 28 265 145 54 53 99
100 99 106 0 6 -35 -26 -77 -70 -89 -91 -156 -140 -220 -159 -118 -36 -169 38
-124 183 41 134 205 344 297 379 41 15 45 15 69 0 37 -25 33 -61 -13 -105 -21
-20 -54 -45 -72 -56 -72 -43 -92 -117 -36 -131 69 -17 166 111 166 219 0 124
-111 129 -291 12 -87 -56 -136 -105 -200 -202 -103 -156 -229 -287 -296 -307
-12 -4 -32 -2 -44 4 -18 10 -21 18 -17 60 4 40 28 86 144 276 76 125 141 232
142 237 2 4 -27 7 -64 5 l-69 -3 -65 -111 c-120 -204 -312 -436 -383 -463 -56
-22 -89 15 -67 74 6 16 45 80 86 142 82 123 104 174 104 240 0 109 -76 161
-168 114 -36 -18 -131 -112 -200 -196 -30 -37 -32 -38 -18 -9 37 77 28 165
-21 204 -31 24 -80 26 -113 4z"/>
<path d="M10842 853 c-18 -9 -61 -47 -94 -84 -92 -104 -122 -124 -188 -124
-42 0 -55 -3 -55 -15 0 -12 13 -15 55 -15 95 0 98 -12 40 -143 -22 -49 -40
-100 -40 -114 0 -55 67 -104 132 -95 62 8 152 88 263 232 15 19 15 18 9 -16
-7 -43 11 -113 38 -152 11 -15 38 -37 61 -48 55 -29 136 -22 207 17 90 49 259
222 353 360 53 78 137 174 168 189 39 21 62 6 53 -34 -10 -41 -92 -191 -203
-369 -55 -89 -101 -165 -101 -167 0 -3 28 -5 63 -5 l63 0 76 122 c42 68 100
147 130 175 l53 52 -3 -63 c-3 -59 -2 -65 24 -85 33 -26 57 -26 112 -1 41 19
162 134 162 155 0 5 -33 -25 -73 -67 -76 -79 -117 -101 -167 -88 -29 8 -50 43
-50 86 0 62 17 87 92 133 126 78 191 159 143 177 -46 18 -133 -51 -195 -156
-22 -36 -59 -85 -83 -108 l-43 -43 34 73 c45 93 50 173 13 212 -14 15 -35 26
-50 26 -56 0 -107 -50 -290 -283 -104 -134 -220 -243 -294 -279 -74 -37 -153
-39 -185 -5 -34 36 -30 106 11 186 l32 64 110 28 c243 60 335 116 338 206 2
76 -81 103 -194 64 -164 -56 -323 -172 -375 -272 -25 -50 -135 -188 -188 -237
-77 -71 -146 -89 -146 -38 0 12 16 57 35 101 19 44 35 92 35 107 0 31 -40 82
-82 104 l-30 16 23 15 c13 9 65 56 116 105 82 80 95 89 125 86 51 -5 48 -31
-11 -85 -71 -64 -70 -113 2 -113 11 0 39 20 63 45 106 110 38 233 -94 168z
m656 -9 c34 -61 -82 -169 -252 -235 -111 -43 -120 -37 -59 36 134 161 280 254
311 199z"/>
</g>
</svg>
