<?xml version="1.0" encoding="UTF-8" standalone="no"?>
<!-- Created with Inkscape (http://www.inkscape.org/) -->

<svg
   xmlns:dc="http://purl.org/dc/elements/1.1/"
   xmlns:cc="http://creativecommons.org/ns#"
   xmlns:rdf="http://www.w3.org/1999/02/22-rdf-syntax-ns#"
   xmlns:svg="http://www.w3.org/2000/svg"
   xmlns="http://www.w3.org/2000/svg"
   version="1.1"
   width="1024"
   height="255"
   id="svg5082">
  <defs
     id="defs5084">
    <clipPath
       id="clipPath5002">
      <path
         d="m 425.197,770.57 130.208,0 0,31.527 -130.208,0 0,-31.527 z"
         id="path5004" />
    </clipPath>
  </defs>
  <metadata
     id="metadata5087">
    <rdf:RDF>
      <cc:Work
         rdf:about="">
        <dc:format>image/svg+xml</dc:format>
        <dc:type
           rdf:resource="http://purl.org/dc/dcmitype/StillImage" />
        <dc:title></dc:title>
      </cc:Work>
    </rdf:RDF>
  </metadata>
  <g
     transform="translate(0,-513)"
     id="layer1">
    <g
       transform="matrix(8.1547354,0,0,-8.1547354,-3486.2756,7054.3352)"
       id="g4998">
      <g
         clip-path="url(#clipPath5002)"
         id="g5000">
        <g
           transform="translate(552.3053,786.5311)"
           id="g5006">
          <path
             d="m 0,0 c 0,1.108 -0.105,1.88 -0.32,2.315 -0.47,0.949 -1.3,1.424 -2.489,1.424 -1.065,0 -2.039,-0.451 -2.926,-1.355 -0.526,0.904 -1.344,1.355 -2.455,1.355 -1.131,0 -2.057,-0.451 -2.774,-1.355 l 0,1.15 -2.236,0 0,-8.577 2.236,0 0,4.871 c 0,0.687 0.06,1.167 0.185,1.441 0.279,0.618 0.795,0.926 1.547,0.926 0.583,0 1.004,-0.228 1.261,-0.685 0.18,-0.309 0.269,-0.853 0.269,-1.63 l 0,-4.923 2.22,0 0,4.803 c 0,0.583 0.034,0.994 0.102,1.235 0.213,0.8 0.765,1.2 1.656,1.2 0.551,0 0.963,-0.205 1.233,-0.617 0.204,-0.309 0.306,-0.851 0.306,-1.629 l 0,-4.992 2.185,0 L 0,0 z m -15.89,3.534 -2.221,0 0,-8.577 2.221,0 0,8.577 z m -0.203,3.559 c -0.235,0.246 -0.533,0.368 -0.892,0.368 -0.392,0 -0.705,-0.122 -0.941,-0.368 -0.235,-0.246 -0.352,-0.57 -0.352,-0.969 0,-0.344 0.125,-0.639 0.377,-0.884 0.253,-0.246 0.553,-0.369 0.9,-0.369 0.348,0 0.645,0.129 0.891,0.386 0.247,0.257 0.37,0.563 0.37,0.918 0,0.366 -0.117,0.672 -0.353,0.918 m -9.669,-6.922 c 0.068,1.567 0.69,2.35 1.868,2.35 0.996,0 1.539,-0.646 1.629,-1.938 0.012,-0.17 0.017,-0.309 0.017,-0.412 l -3.514,0 z m 5.028,1.682 c -0.561,1.258 -1.603,1.886 -3.129,1.886 -1.21,0 -2.207,-0.389 -2.992,-1.166 -0.831,-0.824 -1.244,-1.887 -1.244,-3.19 0,-1.418 0.465,-2.573 1.395,-3.465 0.808,-0.778 1.827,-1.167 3.061,-1.167 1.077,0 2.169,0.32 3.279,0.961 l -0.623,1.184 c -0.739,-0.458 -1.468,-0.687 -2.185,-0.687 -0.762,0 -1.382,0.252 -1.859,0.755 -0.476,0.504 -0.721,1.188 -0.731,2.059 l 5.062,0 c 0,0.034 0.073,0.086 0.218,0.154 0.146,0.068 0.219,0.115 0.219,0.136 -0.011,1.018 -0.167,1.864 -0.471,2.54 m -9.349,-2.025 c 0,1.098 -0.084,1.864 -0.253,2.299 -0.415,1.075 -1.306,1.612 -2.673,1.612 -1.089,0 -2.042,-0.44 -2.86,-1.32 l 0,5.128 -2.236,0 0,-12.59 2.236,0 0,4.632 c 0,0.72 0.068,1.239 0.203,1.56 0.291,0.697 0.868,1.046 1.731,1.046 0.64,0 1.093,-0.24 1.363,-0.72 0.178,-0.332 0.268,-0.869 0.268,-1.613 l 0,-4.905 2.221,0 0,4.871 z m -10.578,0 c 0,1.098 -0.085,1.864 -0.252,2.299 -0.426,1.075 -1.311,1.612 -2.657,1.612 -1.109,0 -2.069,-0.451 -2.876,-1.355 l 0,1.15 -2.236,0 0,-8.577 2.236,0 0,4.632 c 0,0.652 0.05,1.125 0.151,1.423 0.27,0.789 0.863,1.183 1.783,1.183 0.639,0 1.093,-0.24 1.362,-0.72 0.179,-0.332 0.268,-0.869 0.268,-1.613 l 0,-4.905 2.221,0 0,4.871 z m -15.505,0.343 c 0.068,1.567 0.691,2.35 1.868,2.35 0.995,0 1.54,-0.646 1.629,-1.938 0.012,-0.17 0.018,-0.309 0.018,-0.412 l -3.515,0 z m 5.029,1.682 c -0.561,1.258 -1.604,1.886 -3.129,1.886 -1.209,0 -2.208,-0.389 -2.992,-1.166 -0.831,-0.824 -1.244,-1.887 -1.244,-3.19 0,-1.418 0.464,-2.573 1.395,-3.465 0.807,-0.778 1.826,-1.167 3.06,-1.167 1.076,0 2.169,0.32 3.279,0.961 l -0.622,1.184 c -0.74,-0.458 -1.468,-0.687 -2.186,-0.687 -0.763,0 -1.381,0.252 -1.858,0.755 -0.477,0.504 -0.721,1.188 -0.732,2.059 l 5.062,0 c 0,0.034 0.073,0.086 0.218,0.154 0.146,0.068 0.219,0.115 0.219,0.136 -0.011,1.018 -0.168,1.864 -0.47,2.54 M -63.216,-3.01 c -0.394,-0.601 -0.914,-0.901 -1.559,-0.901 -0.623,0 -1.127,0.3 -1.51,0.901 -0.384,0.601 -0.575,1.392 -0.575,2.375 0,0.938 0.185,1.676 0.558,2.213 0.373,0.537 0.876,0.806 1.509,0.806 0.657,0 1.183,-0.274 1.577,-0.823 0.395,-0.549 0.593,-1.287 0.593,-2.213 0,-0.972 -0.198,-1.757 -0.593,-2.358 m 2.746,10.557 -2.153,0 0,-5.128 c -0.673,0.88 -1.553,1.32 -2.64,1.32 -1.144,0 -2.092,-0.426 -2.842,-1.278 -0.752,-0.852 -1.126,-1.924 -1.126,-3.216 0,-1.247 0.318,-2.287 0.958,-3.121 0.695,-0.916 1.631,-1.373 2.808,-1.373 1.053,0 2.002,0.491 2.842,1.476 l 0,-1.27 2.153,0 0,12.59 z m -10.745,-4.013 -2.221,0 0,-4.615 c 0,-0.708 -0.072,-1.229 -0.218,-1.561 -0.303,-0.708 -0.875,-1.062 -1.716,-1.062 -0.639,0 -1.092,0.239 -1.362,0.719 -0.179,0.333 -0.269,0.869 -0.269,1.613 l 0,4.906 -2.22,0 0,-4.873 c 0,-1.108 0.084,-1.88 0.253,-2.314 0.414,-1.065 1.3,-1.596 2.656,-1.596 1.11,0 2.069,0.451 2.876,1.355 l 0,-1.149 2.221,0 0,8.577 z m -13.118,-6.656 c -0.392,-0.308 -1.015,-0.463 -1.866,-0.463 l -0.993,0 0,4.065 0.976,0 c 0.728,0 1.277,-0.091 1.647,-0.274 0.651,-0.321 0.976,-0.898 0.976,-1.732 0,-0.676 -0.246,-1.207 -0.74,-1.596 m -0.407,5.643 c -0.451,-0.376 -1.088,-0.566 -1.911,-0.566 l -0.541,0 0,3.534 0.88,0 c 0.732,0 1.222,-0.063 1.47,-0.189 0.519,-0.263 0.778,-0.709 0.778,-1.338 0,-0.583 -0.226,-1.063 -0.676,-1.441 m 2.005,-1.44 c -0.449,0.216 -0.964,0.349 -1.547,0.394 1.603,0.504 2.405,1.458 2.405,2.865 0,0.972 -0.399,1.686 -1.195,2.144 -0.56,0.32 -1.541,0.48 -2.943,0.48 l -3.497,0 0,-12.007 3.363,0 c 1.39,0 2.444,0.189 3.161,0.566 1.223,0.641 1.833,1.612 1.833,2.916 0,1.247 -0.526,2.127 -1.58,2.642"
             id="path5008"
             style="fill:#003a80;fill-opacity:1;fill-rule:nonzero;stroke:none" />
        </g>
        <g
           transform="translate(432.1329,776.3342)"
           id="g5010">
          <path
             d="m 0,0 c 2.749,-3.07 6.731,-5.014 11.176,-5.014 4.447,0 8.432,1.94 11.175,5.014 L 0,0 z m 26.185,9.923 -7.989,0 c 0.207,0.605 0.366,1.236 0.471,1.883 l 7.396,0 c -0.136,1.09 -0.379,2.148 -0.735,3.155 l -6.583,0 c -0.071,0.645 -0.197,1.274 -0.37,1.882 l 6.144,0 c -0.574,1.111 -1.274,2.146 -2.093,3.075 l -5.44,0 c -0.421,0.652 -0.904,1.261 -1.444,1.811 l 0,0.073 4.893,0 c -2.551,2.004 -5.762,3.209 -9.259,3.209 -8.291,0 -15.012,-6.721 -15.012,-15.012 0,-2.993 0.886,-5.775 2.394,-8.116 l 25.229,0 c 0.616,0.958 1.126,1.989 1.514,3.078 l -10.218,0 0,0.206 c 0.555,0.507 1.06,1.069 1.508,1.678 l 9.259,0 c 0.213,0.993 0.33,2.022 0.335,3.078"
             id="path5012"
             style="fill:#003a80;fill-opacity:1;fill-rule:nonzero;stroke:none" />
        </g>
      </g>
    </g>
  </g>
</svg>
